<mxfile host="app.diagrams.net" agent="Mozilla/5.0 (Windows NT 10.0; Win64; x64) AppleWebKit/537.36 (KHTML, like Gecko) Chrome/127.0.0.0 Safari/537.36" version="24.7.7">
  <diagram name="Página-1" id="AwX_TxC7Cly9SzzmxP42">
    <mxGraphModel dx="1358" dy="595" grid="1" gridSize="10" guides="1" tooltips="1" connect="1" arrows="1" fold="1" page="1" pageScale="1" pageWidth="1169" pageHeight="827" math="0" shadow="0">
      <root>
        <mxCell id="0" />
        <mxCell id="1" parent="0" />
        <mxCell id="fAoEaqAJyvpC7OHhxoXD-1" value="Consignado Privado - Gestão de Funcionários" style="swimlane;html=1;childLayout=stackLayout;resizeParent=1;resizeParentMax=0;horizontal=0;startSize=20;horizontalStack=0;rounded=1;" vertex="1" parent="1">
          <mxGeometry x="40" y="40" width="2885" height="715" as="geometry">
            <mxRectangle x="40" y="40" width="40" height="140" as="alternateBounds" />
          </mxGeometry>
        </mxCell>
        <mxCell id="fAoEaqAJyvpC7OHhxoXD-2" value="RH" style="swimlane;html=1;startSize=20;horizontal=0;rounded=1;" vertex="1" parent="fAoEaqAJyvpC7OHhxoXD-1">
          <mxGeometry x="20" width="2865" height="355" as="geometry" />
        </mxCell>
        <mxCell id="fAoEaqAJyvpC7OHhxoXD-3" value="" style="edgeStyle=orthogonalEdgeStyle;rounded=1;orthogonalLoop=1;jettySize=auto;html=1;" edge="1" parent="fAoEaqAJyvpC7OHhxoXD-2" source="fAoEaqAJyvpC7OHhxoXD-4" target="fAoEaqAJyvpC7OHhxoXD-5">
          <mxGeometry relative="1" as="geometry" />
        </mxCell>
        <mxCell id="fAoEaqAJyvpC7OHhxoXD-4" value="" style="ellipse;whiteSpace=wrap;html=1;rounded=1;" vertex="1" parent="fAoEaqAJyvpC7OHhxoXD-2">
          <mxGeometry x="40" y="95" width="40" height="40" as="geometry" />
        </mxCell>
        <mxCell id="fAoEaqAJyvpC7OHhxoXD-5" value="Efetua uma extração de funcionários da base conforme a política de crédito consignado da empresa." style="rounded=1;whiteSpace=wrap;html=1;fontFamily=Helvetica;fontSize=12;fontColor=#000000;align=center;" vertex="1" parent="fAoEaqAJyvpC7OHhxoXD-2">
          <mxGeometry x="120" y="75" width="180" height="80" as="geometry" />
        </mxCell>
        <mxCell id="fAoEaqAJyvpC7OHhxoXD-76" value="" style="edgeStyle=orthogonalEdgeStyle;rounded=0;orthogonalLoop=1;jettySize=auto;html=1;entryX=0;entryY=0.5;entryDx=0;entryDy=0;" edge="1" parent="fAoEaqAJyvpC7OHhxoXD-2" source="fAoEaqAJyvpC7OHhxoXD-72" target="fAoEaqAJyvpC7OHhxoXD-77">
          <mxGeometry relative="1" as="geometry">
            <mxPoint x="610" y="90" as="targetPoint" />
          </mxGeometry>
        </mxCell>
        <mxCell id="fAoEaqAJyvpC7OHhxoXD-72" value="Efetua o upload na plataforma do consignado com a base de funcionário." style="rounded=1;whiteSpace=wrap;html=1;fontFamily=Helvetica;fontSize=12;fontColor=#000000;align=center;" vertex="1" parent="fAoEaqAJyvpC7OHhxoXD-2">
          <mxGeometry x="345" y="75" width="180" height="80" as="geometry" />
        </mxCell>
        <mxCell id="fAoEaqAJyvpC7OHhxoXD-77" value="&#xa;&lt;span style=&quot;color: rgb(0, 0, 0); font-family: Helvetica; font-size: 12px; font-style: normal; font-variant-ligatures: normal; font-variant-caps: normal; font-weight: 400; letter-spacing: normal; orphans: 2; text-align: center; text-indent: 0px; text-transform: none; widows: 2; word-spacing: 0px; -webkit-text-stroke-width: 0px; white-space: normal; background-color: rgb(251, 251, 251); text-decoration-thickness: initial; text-decoration-style: initial; text-decoration-color: initial; display: inline !important; float: none;&quot;&gt;Cadastrado = 1&lt;/span&gt;&lt;div style=&quot;forced-color-adjust: none; color: rgb(0, 0, 0); font-family: Helvetica; font-size: 12px; font-style: normal; font-variant-ligatures: normal; font-variant-caps: normal; font-weight: 400; letter-spacing: normal; orphans: 2; text-align: center; text-indent: 0px; text-transform: none; widows: 2; word-spacing: 0px; -webkit-text-stroke-width: 0px; white-space: normal; background-color: rgb(251, 251, 251); text-decoration-thickness: initial; text-decoration-style: initial; text-decoration-color: initial;&quot;&gt;Apto = 2&lt;/div&gt;&lt;div style=&quot;forced-color-adjust: none; color: rgb(0, 0, 0); font-family: Helvetica; font-size: 12px; font-style: normal; font-variant-ligatures: normal; font-variant-caps: normal; font-weight: 400; letter-spacing: normal; orphans: 2; text-align: center; text-indent: 0px; text-transform: none; widows: 2; word-spacing: 0px; -webkit-text-stroke-width: 0px; white-space: normal; background-color: rgb(251, 251, 251); text-decoration-thickness: initial; text-decoration-style: initial; text-decoration-color: initial;&quot;&gt;Inapto = 3&lt;/div&gt;&lt;div style=&quot;forced-color-adjust: none; color: rgb(0, 0, 0); font-family: Helvetica; font-size: 12px; font-style: normal; font-variant-ligatures: normal; font-variant-caps: normal; font-weight: 400; letter-spacing: normal; orphans: 2; text-align: center; text-indent: 0px; text-transform: none; widows: 2; word-spacing: 0px; -webkit-text-stroke-width: 0px; white-space: normal; background-color: rgb(251, 251, 251); text-decoration-thickness: initial; text-decoration-style: initial; text-decoration-color: initial;&quot;&gt;Desligado = 4&lt;/div&gt;&lt;div style=&quot;forced-color-adjust: none; color: rgb(0, 0, 0); font-family: Helvetica; font-size: 12px; font-style: normal; font-variant-ligatures: normal; font-variant-caps: normal; font-weight: 400; letter-spacing: normal; orphans: 2; text-align: center; text-indent: 0px; text-transform: none; widows: 2; word-spacing: 0px; -webkit-text-stroke-width: 0px; white-space: normal; background-color: rgb(251, 251, 251); text-decoration-thickness: initial; text-decoration-style: initial; text-decoration-color: initial;&quot;&gt;Afastado = 5&lt;/div&gt;&#xa;&#xa;" style="shape=document;whiteSpace=wrap;html=1;boundedLbl=1;" vertex="1" parent="fAoEaqAJyvpC7OHhxoXD-2">
          <mxGeometry x="610" y="50" width="240" height="130" as="geometry" />
        </mxCell>
        <mxCell id="fAoEaqAJyvpC7OHhxoXD-6" value="Plataforma&amp;nbsp;" style="swimlane;html=1;startSize=20;horizontal=0;rounded=1;" vertex="1" parent="fAoEaqAJyvpC7OHhxoXD-1">
          <mxGeometry x="20" y="355" width="2865" height="240" as="geometry">
            <mxRectangle x="20" y="120" width="760" height="30" as="alternateBounds" />
          </mxGeometry>
        </mxCell>
        <mxCell id="fAoEaqAJyvpC7OHhxoXD-9" value="" style="edgeStyle=orthogonalEdgeStyle;rounded=0;orthogonalLoop=1;jettySize=auto;html=1;" edge="1" parent="fAoEaqAJyvpC7OHhxoXD-6" target="fAoEaqAJyvpC7OHhxoXD-12">
          <mxGeometry relative="1" as="geometry">
            <mxPoint x="605.0000000000002" y="60" as="sourcePoint" />
          </mxGeometry>
        </mxCell>
        <mxCell id="fAoEaqAJyvpC7OHhxoXD-10" value="" style="edgeStyle=orthogonalEdgeStyle;rounded=0;orthogonalLoop=1;jettySize=auto;html=1;entryX=0;entryY=0.5;entryDx=0;entryDy=0;" edge="1" parent="fAoEaqAJyvpC7OHhxoXD-6" target="fAoEaqAJyvpC7OHhxoXD-22">
          <mxGeometry relative="1" as="geometry">
            <mxPoint x="1660" y="60" as="targetPoint" />
            <mxPoint x="1845" y="120" as="sourcePoint" />
          </mxGeometry>
        </mxCell>
        <mxCell id="fAoEaqAJyvpC7OHhxoXD-14" value="" style="edgeStyle=orthogonalEdgeStyle;rounded=0;orthogonalLoop=1;jettySize=auto;html=1;" edge="1" parent="fAoEaqAJyvpC7OHhxoXD-6" target="fAoEaqAJyvpC7OHhxoXD-13">
          <mxGeometry relative="1" as="geometry">
            <mxPoint x="695" y="30" as="sourcePoint" />
          </mxGeometry>
        </mxCell>
        <mxCell id="fAoEaqAJyvpC7OHhxoXD-16" value="" style="edgeStyle=orthogonalEdgeStyle;rounded=0;orthogonalLoop=1;jettySize=auto;html=1;" edge="1" parent="fAoEaqAJyvpC7OHhxoXD-6" target="fAoEaqAJyvpC7OHhxoXD-18">
          <mxGeometry relative="1" as="geometry">
            <mxPoint x="900" y="-30" as="sourcePoint" />
          </mxGeometry>
        </mxCell>
        <mxCell id="fAoEaqAJyvpC7OHhxoXD-17" value="Aprovado" style="edgeLabel;html=1;align=center;verticalAlign=middle;resizable=0;points=[];" vertex="1" connectable="0" parent="fAoEaqAJyvpC7OHhxoXD-16">
          <mxGeometry x="0.5133" y="-2" relative="1" as="geometry">
            <mxPoint x="2" y="-27" as="offset" />
          </mxGeometry>
        </mxCell>
        <mxCell id="fAoEaqAJyvpC7OHhxoXD-19" value="" style="edgeStyle=orthogonalEdgeStyle;rounded=0;orthogonalLoop=1;jettySize=auto;html=1;" edge="1" parent="fAoEaqAJyvpC7OHhxoXD-6" target="fAoEaqAJyvpC7OHhxoXD-15">
          <mxGeometry relative="1" as="geometry">
            <mxPoint x="755" y="-75" as="sourcePoint" />
          </mxGeometry>
        </mxCell>
        <mxCell id="fAoEaqAJyvpC7OHhxoXD-25" value="" style="edgeStyle=orthogonalEdgeStyle;rounded=0;orthogonalLoop=1;jettySize=auto;html=1;" edge="1" parent="fAoEaqAJyvpC7OHhxoXD-6" target="fAoEaqAJyvpC7OHhxoXD-23">
          <mxGeometry relative="1" as="geometry">
            <mxPoint x="950" y="-75" as="sourcePoint" />
          </mxGeometry>
        </mxCell>
        <mxCell id="fAoEaqAJyvpC7OHhxoXD-26" value="Recusado" style="edgeLabel;html=1;align=center;verticalAlign=middle;resizable=0;points=[];" vertex="1" connectable="0" parent="fAoEaqAJyvpC7OHhxoXD-25">
          <mxGeometry x="0.3487" y="1" relative="1" as="geometry">
            <mxPoint x="-14" y="1" as="offset" />
          </mxGeometry>
        </mxCell>
        <mxCell id="fAoEaqAJyvpC7OHhxoXD-27" value="" style="edgeStyle=orthogonalEdgeStyle;rounded=0;orthogonalLoop=1;jettySize=auto;html=1;" edge="1" parent="fAoEaqAJyvpC7OHhxoXD-6" target="fAoEaqAJyvpC7OHhxoXD-24">
          <mxGeometry relative="1" as="geometry">
            <mxPoint x="1175" y="-75" as="sourcePoint" />
          </mxGeometry>
        </mxCell>
        <mxCell id="fAoEaqAJyvpC7OHhxoXD-28" value="" style="edgeStyle=orthogonalEdgeStyle;rounded=0;orthogonalLoop=1;jettySize=auto;html=1;" edge="1" parent="fAoEaqAJyvpC7OHhxoXD-6" target="fAoEaqAJyvpC7OHhxoXD-11">
          <mxGeometry relative="1" as="geometry">
            <mxPoint x="490.030303030303" y="150" as="targetPoint" />
            <mxPoint x="380" y="60" as="sourcePoint" />
          </mxGeometry>
        </mxCell>
        <mxCell id="fAoEaqAJyvpC7OHhxoXD-29" value="Apenas Valor" style="edgeLabel;html=1;align=center;verticalAlign=middle;resizable=0;points=[];" vertex="1" connectable="0" parent="fAoEaqAJyvpC7OHhxoXD-28">
          <mxGeometry x="-0.3" y="1" relative="1" as="geometry">
            <mxPoint as="offset" />
          </mxGeometry>
        </mxCell>
        <mxCell id="fAoEaqAJyvpC7OHhxoXD-30" value="" style="edgeStyle=orthogonalEdgeStyle;rounded=0;orthogonalLoop=1;jettySize=auto;html=1;" edge="1" parent="fAoEaqAJyvpC7OHhxoXD-6" target="fAoEaqAJyvpC7OHhxoXD-34">
          <mxGeometry relative="1" as="geometry">
            <mxPoint x="330" y="100" as="sourcePoint" />
          </mxGeometry>
        </mxCell>
        <mxCell id="fAoEaqAJyvpC7OHhxoXD-31" value="Split para boleto" style="edgeLabel;html=1;align=center;verticalAlign=middle;resizable=0;points=[];" vertex="1" connectable="0" parent="fAoEaqAJyvpC7OHhxoXD-30">
          <mxGeometry x="-0.1957" y="1" relative="1" as="geometry">
            <mxPoint x="-1" y="-10" as="offset" />
          </mxGeometry>
        </mxCell>
        <mxCell id="fAoEaqAJyvpC7OHhxoXD-33" style="edgeStyle=orthogonalEdgeStyle;rounded=0;orthogonalLoop=1;jettySize=auto;html=1;entryX=0.5;entryY=1;entryDx=0;entryDy=0;" edge="1" parent="fAoEaqAJyvpC7OHhxoXD-6" source="fAoEaqAJyvpC7OHhxoXD-34">
          <mxGeometry relative="1" as="geometry">
            <mxPoint x="565" y="90" as="targetPoint" />
          </mxGeometry>
        </mxCell>
        <mxCell id="fAoEaqAJyvpC7OHhxoXD-86" value="" style="edgeStyle=orthogonalEdgeStyle;rounded=0;orthogonalLoop=1;jettySize=auto;html=1;" edge="1" parent="fAoEaqAJyvpC7OHhxoXD-6" source="fAoEaqAJyvpC7OHhxoXD-83" target="fAoEaqAJyvpC7OHhxoXD-85">
          <mxGeometry relative="1" as="geometry" />
        </mxCell>
        <mxCell id="fAoEaqAJyvpC7OHhxoXD-83" value="Notifica o funcionário por E-mail ou WhatsApp&amp;nbsp;" style="rounded=1;whiteSpace=wrap;html=1;" vertex="1" parent="fAoEaqAJyvpC7OHhxoXD-6">
          <mxGeometry x="645" y="77.5" width="170" height="85" as="geometry" />
        </mxCell>
        <mxCell id="fAoEaqAJyvpC7OHhxoXD-85" value="" style="ellipse;whiteSpace=wrap;html=1;rounded=1;fillColor=#FFFFFF;" vertex="1" parent="fAoEaqAJyvpC7OHhxoXD-6">
          <mxGeometry x="910" y="105" width="30" height="30" as="geometry" />
        </mxCell>
        <mxCell id="fAoEaqAJyvpC7OHhxoXD-52" value="FUNDO" style="swimlane;html=1;startSize=20;horizontal=0;rounded=1;" vertex="1" parent="fAoEaqAJyvpC7OHhxoXD-1">
          <mxGeometry x="20" y="595" width="2865" height="120" as="geometry" />
        </mxCell>
        <mxCell id="fAoEaqAJyvpC7OHhxoXD-58" value="" style="edgeStyle=orthogonalEdgeStyle;rounded=0;orthogonalLoop=1;jettySize=auto;html=1;" edge="1" parent="fAoEaqAJyvpC7OHhxoXD-52" target="fAoEaqAJyvpC7OHhxoXD-53">
          <mxGeometry relative="1" as="geometry">
            <mxPoint x="2584.9999999999995" y="53.75" as="sourcePoint" />
          </mxGeometry>
        </mxCell>
        <mxCell id="fAoEaqAJyvpC7OHhxoXD-59" value="" style="edgeStyle=orthogonalEdgeStyle;rounded=0;orthogonalLoop=1;jettySize=auto;html=1;" edge="1" parent="fAoEaqAJyvpC7OHhxoXD-52" target="fAoEaqAJyvpC7OHhxoXD-54">
          <mxGeometry relative="1" as="geometry">
            <mxPoint x="2384.9999999999995" y="53.75" as="sourcePoint" />
          </mxGeometry>
        </mxCell>
        <mxCell id="fAoEaqAJyvpC7OHhxoXD-61" value="" style="edgeStyle=orthogonalEdgeStyle;rounded=0;orthogonalLoop=1;jettySize=auto;html=1;" edge="1" parent="fAoEaqAJyvpC7OHhxoXD-52" target="fAoEaqAJyvpC7OHhxoXD-60">
          <mxGeometry relative="1" as="geometry">
            <mxPoint x="2769.9999999999995" y="53.75" as="sourcePoint" />
          </mxGeometry>
        </mxCell>
        <mxCell id="fAoEaqAJyvpC7OHhxoXD-78" value="Define a política de crédito.&amp;nbsp;" style="whiteSpace=wrap;html=1;fontColor=#000000;rounded=1;" vertex="1" parent="fAoEaqAJyvpC7OHhxoXD-52">
          <mxGeometry x="150" y="30" width="120" height="60" as="geometry" />
        </mxCell>
        <mxCell id="fAoEaqAJyvpC7OHhxoXD-63" value="" style="edgeStyle=orthogonalEdgeStyle;rounded=0;orthogonalLoop=1;jettySize=auto;html=1;exitX=0.5;exitY=1;exitDx=0;exitDy=0;" edge="1" parent="fAoEaqAJyvpC7OHhxoXD-1" target="fAoEaqAJyvpC7OHhxoXD-55">
          <mxGeometry relative="1" as="geometry">
            <mxPoint x="2345" y="505" as="sourcePoint" />
          </mxGeometry>
        </mxCell>
        <mxCell id="fAoEaqAJyvpC7OHhxoXD-64" value="" style="edgeStyle=orthogonalEdgeStyle;rounded=0;orthogonalLoop=1;jettySize=auto;html=1;" edge="1" parent="fAoEaqAJyvpC7OHhxoXD-1" target="fAoEaqAJyvpC7OHhxoXD-56">
          <mxGeometry relative="1" as="geometry">
            <mxPoint x="1805" y="565" as="sourcePoint" />
          </mxGeometry>
        </mxCell>
        <mxCell id="fAoEaqAJyvpC7OHhxoXD-65" value="" style="edgeStyle=orthogonalEdgeStyle;rounded=0;orthogonalLoop=1;jettySize=auto;html=1;entryX=0.5;entryY=1;entryDx=0;entryDy=0;" edge="1" parent="fAoEaqAJyvpC7OHhxoXD-1" target="fAoEaqAJyvpC7OHhxoXD-42">
          <mxGeometry relative="1" as="geometry">
            <mxPoint x="1865" y="691.2608695652175" as="sourcePoint" />
          </mxGeometry>
        </mxCell>
        <mxCell id="fAoEaqAJyvpC7OHhxoXD-66" value="" style="edgeStyle=orthogonalEdgeStyle;rounded=0;orthogonalLoop=1;jettySize=auto;html=1;" edge="1" parent="fAoEaqAJyvpC7OHhxoXD-1" target="fAoEaqAJyvpC7OHhxoXD-57">
          <mxGeometry relative="1" as="geometry">
            <mxPoint x="1325" y="522.5" as="sourcePoint" />
          </mxGeometry>
        </mxCell>
        <mxCell id="fAoEaqAJyvpC7OHhxoXD-67" value="" style="edgeStyle=orthogonalEdgeStyle;rounded=0;orthogonalLoop=1;jettySize=auto;html=1;" edge="1" parent="fAoEaqAJyvpC7OHhxoXD-1" target="fAoEaqAJyvpC7OHhxoXD-39">
          <mxGeometry relative="1" as="geometry">
            <mxPoint x="1385" y="691.2608695652175" as="sourcePoint" />
          </mxGeometry>
        </mxCell>
        <mxCell id="fAoEaqAJyvpC7OHhxoXD-68" value="" style="edgeStyle=orthogonalEdgeStyle;rounded=0;orthogonalLoop=1;jettySize=auto;html=1;" edge="1" parent="fAoEaqAJyvpC7OHhxoXD-1" target="fAoEaqAJyvpC7OHhxoXD-36">
          <mxGeometry relative="1" as="geometry">
            <mxPoint x="920" y="270" as="sourcePoint" />
          </mxGeometry>
        </mxCell>
        <mxCell id="fAoEaqAJyvpC7OHhxoXD-69" value="" style="edgeStyle=orthogonalEdgeStyle;rounded=0;orthogonalLoop=1;jettySize=auto;html=1;" edge="1" parent="fAoEaqAJyvpC7OHhxoXD-1" target="fAoEaqAJyvpC7OHhxoXD-20">
          <mxGeometry relative="1" as="geometry">
            <mxPoint x="1120" y="462.5" as="sourcePoint" />
          </mxGeometry>
        </mxCell>
        <mxCell id="fAoEaqAJyvpC7OHhxoXD-70" value="" style="edgeStyle=orthogonalEdgeStyle;rounded=0;orthogonalLoop=1;jettySize=auto;html=1;" edge="1" parent="fAoEaqAJyvpC7OHhxoXD-1" target="fAoEaqAJyvpC7OHhxoXD-38">
          <mxGeometry relative="1" as="geometry">
            <mxPoint x="1180" y="240.04347826086962" as="sourcePoint" />
          </mxGeometry>
        </mxCell>
        <mxCell id="fAoEaqAJyvpC7OHhxoXD-71" value="" style="edgeStyle=orthogonalEdgeStyle;rounded=0;orthogonalLoop=1;jettySize=auto;html=1;" edge="1" parent="fAoEaqAJyvpC7OHhxoXD-1" target="fAoEaqAJyvpC7OHhxoXD-21">
          <mxGeometry relative="1" as="geometry">
            <mxPoint x="1805" y="430" as="sourcePoint" />
          </mxGeometry>
        </mxCell>
        <mxCell id="fAoEaqAJyvpC7OHhxoXD-79" value="" style="edgeStyle=orthogonalEdgeStyle;rounded=0;orthogonalLoop=1;jettySize=auto;html=1;" edge="1" parent="fAoEaqAJyvpC7OHhxoXD-1" source="fAoEaqAJyvpC7OHhxoXD-5" target="fAoEaqAJyvpC7OHhxoXD-78">
          <mxGeometry relative="1" as="geometry" />
        </mxCell>
        <mxCell id="fAoEaqAJyvpC7OHhxoXD-80" style="edgeStyle=orthogonalEdgeStyle;rounded=0;orthogonalLoop=1;jettySize=auto;html=1;entryX=0.5;entryY=1;entryDx=0;entryDy=0;" edge="1" parent="fAoEaqAJyvpC7OHhxoXD-1" source="fAoEaqAJyvpC7OHhxoXD-78" target="fAoEaqAJyvpC7OHhxoXD-72">
          <mxGeometry relative="1" as="geometry" />
        </mxCell>
        <mxCell id="fAoEaqAJyvpC7OHhxoXD-82" value="" style="edgeStyle=orthogonalEdgeStyle;rounded=0;orthogonalLoop=1;jettySize=auto;html=1;" edge="1" parent="fAoEaqAJyvpC7OHhxoXD-1" source="fAoEaqAJyvpC7OHhxoXD-77" target="fAoEaqAJyvpC7OHhxoXD-83">
          <mxGeometry relative="1" as="geometry">
            <mxPoint x="750" y="290" as="targetPoint" />
          </mxGeometry>
        </mxCell>
      </root>
    </mxGraphModel>
  </diagram>
</mxfile>
